<?xml version="1.0" encoding="UTF-8" standalone="no"?>
<!-- Created with Inkscape (http://www.inkscape.org/) -->

<svg
   xmlns:dc="http://purl.org/dc/elements/1.1/"
   xmlns:cc="http://creativecommons.org/ns#"
   xmlns:rdf="http://www.w3.org/1999/02/22-rdf-syntax-ns#"
   xmlns:svg="http://www.w3.org/2000/svg"
   xmlns="http://www.w3.org/2000/svg"
   xmlns:sodipodi="http://sodipodi.sourceforge.net/DTD/sodipodi-0.dtd"
   xmlns:inkscape="http://www.inkscape.org/namespaces/inkscape"
   width="297mm"
   height="210mm"
   viewBox="0 0 1052.3622 744.09448"
   id="svg2"
   version="1.1"
   inkscape:version="0.91 r13725"
   sodipodi:docname="platoon.svg">
  <defs
     id="defs4" />
  <sodipodi:namedview
     id="base"
     pagecolor="#ffffff"
     bordercolor="#666666"
     borderopacity="1.0"
     inkscape:pageopacity="0.0"
     inkscape:pageshadow="2"
     inkscape:zoom="1.6"
     inkscape:cx="450.56724"
     inkscape:cy="470.15636"
     inkscape:document-units="px"
     inkscape:current-layer="layer1"
     showgrid="true"
     inkscape:snap-grids="false"
     inkscape:window-width="1313"
     inkscape:window-height="744"
     inkscape:window-x="53"
     inkscape:window-y="24"
     inkscape:window-maximized="1"
     inkscape:snap-to-guides="true">
    <inkscape:grid
       type="xygrid"
       id="grid3435" />
  </sodipodi:namedview>
  <metadata
     id="metadata7">
    <rdf:RDF>
      <cc:Work
         rdf:about="">
        <dc:format>image/svg+xml</dc:format>
        <dc:type
           rdf:resource="http://purl.org/dc/dcmitype/StillImage" />
        <dc:title></dc:title>
      </cc:Work>
    </rdf:RDF>
  </metadata>
  <g
     inkscape:label="Layer 1"
     inkscape:groupmode="layer"
     id="layer1"
     transform="translate(0,-308.26772)">
    <path
       id="path12"
       d="m 793.81425,692.45839 c -3.16116,0 -6.2238,1.0777 -8.75275,3.04518 l -18.24497,14.04992 -45.07303,6.42461 c -3.07084,0.49186 -5.05508,3.55445 -4.12179,6.59789 l 4.60671,15.4116 8.99521,0 c -0.8988,8.72999 5.07826,14.4708 12.70482,14.4708 7.62655,0 13.67728,-6.49457 12.70482,-14.4708 l 73.76796,0 c -1.07404,8.70432 5.24452,14.4708 12.70482,14.4708 7.4603,0 13.67648,-6.50101 12.70482,-14.4708 l 18.39047,0 c 1.71606,0 3.18833,-1.47899 3.18833,-3.29278 l 0,-17.42932 c 0,-1.66007 -1.1985,-3.04044 -2.76403,-3.25561 l -31.3135,-4.45639 -12.40174,-12.67587 c -2.70958,-2.82825 -6.41491,-4.35775 -10.32874,-4.41923 l -26.76741,0 z m 13.1655,5.34764 14.3899,0 c 2.13756,0 4.09347,1.13238 5.29772,2.94615 l 3.55202,5.47143 c 0.8788,1.53159 -0.0782,3.0223 -1.72146,3.29276 l -21.51818,0 0,-11.71034 z m -15.48097,0.0248 11.40766,0 0,11.68558 -29.2526,0 13.09276,-10.05158 c 1.35479,-1.04522 3.06623,-1.634 4.75218,-1.634 z"
       inkscape:connector-curvature="0" />
    <path
       id="path12-7"
       d="m 516.80327,692.45841 c -3.16116,0 -6.2238,1.0777 -8.75275,3.04518 l -18.24497,14.04992 -45.07303,6.42461 c -3.07084,0.49186 -5.05508,3.55445 -4.12179,6.59789 l 4.60671,15.4116 8.99521,0 c -0.8988,8.72999 5.07826,14.4708 12.70482,14.4708 7.62655,0 13.67728,-6.49457 12.70482,-14.4708 l 73.76796,0 c -1.07404,8.70432 5.24452,14.4708 12.70482,14.4708 7.4603,0 13.67648,-6.50101 12.70482,-14.4708 l 18.39047,0 c 1.71606,0 3.18833,-1.47899 3.18833,-3.29278 l 0,-17.42932 c 0,-1.66007 -1.1985,-3.04044 -2.76403,-3.25561 l -31.3135,-4.45639 -12.40174,-12.67587 c -2.70958,-2.82825 -6.41491,-4.35775 -10.32874,-4.41923 l -26.76741,0 z m 13.1655,5.34764 14.3899,0 c 2.13756,0 4.09347,1.13238 5.29772,2.94615 l 3.55202,5.47143 c 0.8788,1.53159 -0.0782,3.0223 -1.72146,3.29276 l -21.51818,0 0,-11.71034 z m -15.48097,0.0248 11.40766,0 0,11.68558 -29.2526,0 13.09276,-10.05158 c 1.35479,-1.04522 3.06623,-1.634 4.75218,-1.634 z"
       inkscape:connector-curvature="0" />
    <path
       id="path12-7-5"
       d="m 235.5787,693.19842 c -3.16116,0 -6.2238,1.0777 -8.75275,3.04518 l -18.24497,14.04992 -45.07303,6.42461 c -3.07084,0.49186 -5.05508,3.55445 -4.12179,6.59789 l 4.60671,15.4116 8.99521,0 c -0.8988,8.72999 5.07826,14.4708 12.70482,14.4708 7.62655,0 13.67728,-6.49457 12.70482,-14.4708 l 73.76795,0 c -1.07404,8.70432 5.24452,14.4708 12.70482,14.4708 7.4603,0 13.67648,-6.50101 12.70482,-14.4708 l 18.39047,0 c 1.71606,0 3.18833,-1.47899 3.18833,-3.29278 l 0,-17.42932 c 0,-1.66007 -1.1985,-3.04044 -2.76403,-3.25561 l -31.3135,-4.45639 -12.40174,-12.67587 c -2.70958,-2.82825 -6.41491,-4.35775 -10.32874,-4.41923 l -26.7674,0 z m 13.1655,5.34764 14.38989,0 c 2.13756,0 4.09347,1.13238 5.29772,2.94615 l 3.55202,5.47143 c 0.8788,1.53159 -0.0782,3.0223 -1.72146,3.29276 l -21.51817,0 0,-11.71034 z m -15.48097,0.0248 11.40766,0 0,11.68558 -29.2526,0 13.09276,-10.05158 c 1.35479,-1.04522 3.06623,-1.634 4.75218,-1.634 z"
       inkscape:connector-curvature="0" />
    <path
       style="fill:none;fill-rule:evenodd;stroke:#000000;stroke-width:1px;stroke-linecap:butt;stroke-linejoin:miter;stroke-opacity:1"
       d="m 319.375,712.3622 0,-34.375"
       id="path3456"
       inkscape:connector-curvature="0" />
    <path
       style="fill:none;fill-rule:evenodd;stroke:#000000;stroke-width:1px;stroke-linecap:butt;stroke-linejoin:miter;stroke-opacity:1"
       d="m 439.375,712.3622 0,-35"
       id="path3458"
       inkscape:connector-curvature="0" />
    <path
       style="fill:none;fill-rule:evenodd;stroke:#000000;stroke-width:1px;stroke-linecap:butt;stroke-linejoin:miter;stroke-opacity:1"
       d="m 599.375,712.3622 0,-35"
       id="path3460"
       inkscape:connector-curvature="0" />
    <path
       style="fill:none;fill-rule:evenodd;stroke:#000000;stroke-width:1px;stroke-linecap:butt;stroke-linejoin:miter;stroke-opacity:1"
       d="m 715.625,716.7372 0,-39.375"
       id="path3462"
       inkscape:connector-curvature="0" />
  </g>
</svg>
